<svg id="SvgjsSvg1084" width="547.0124816894531" height="711.4000549316406" xmlns="http://www.w3.org/2000/svg" version="1.1" xmlns:xlink="http://www.w3.org/1999/xlink" xmlns:svgjs="http://svgjs.com/svgjs"><defs id="SvgjsDefs1085"><marker id="SvgjsMarker1094" markerWidth="16" markerHeight="12" refX="16" refY="6" viewBox="0 0 16 12" orient="auto" markerUnits="userSpaceOnUse" stroke-dasharray="0,0"><path id="SvgjsPath1095" d="M0,2 L14,6 L0,11 L0,2" fill="#323232" stroke="#323232" stroke-width="2"></path></marker><marker id="SvgjsMarker1104" markerWidth="16" markerHeight="12" refX="16" refY="6" viewBox="0 0 16 12" orient="auto" markerUnits="userSpaceOnUse" stroke-dasharray="0,0"><path id="SvgjsPath1105" d="M0,2 L14,6 L0,11 L0,2" fill="#323232" stroke="#323232" stroke-width="2"></path></marker><marker id="SvgjsMarker1120" markerWidth="16" markerHeight="12" refX="16" refY="6" viewBox="0 0 16 12" orient="auto" markerUnits="userSpaceOnUse" stroke-dasharray="0,0"><path id="SvgjsPath1121" d="M0,2 L14,6 L0,11 L0,2" fill="#323232" stroke="#323232" stroke-width="2"></path></marker><marker id="SvgjsMarker1130" markerWidth="16" markerHeight="12" refX="16" refY="6" viewBox="0 0 16 12" orient="auto" markerUnits="userSpaceOnUse" stroke-dasharray="0,0"><path id="SvgjsPath1131" d="M0,2 L14,6 L0,11 L0,2" fill="#323232" stroke="#323232" stroke-width="2"></path></marker><marker id="SvgjsMarker1140" markerWidth="16" markerHeight="12" refX="16" refY="6" viewBox="0 0 16 12" orient="auto" markerUnits="userSpaceOnUse" stroke-dasharray="0,0"><path id="SvgjsPath1141" d="M0,2 L14,6 L0,11 L0,2" fill="#323232" stroke="#323232" stroke-width="2"></path></marker><marker id="SvgjsMarker1144" markerWidth="16" markerHeight="12" refX="16" refY="6" viewBox="0 0 16 12" orient="auto" markerUnits="userSpaceOnUse" stroke-dasharray="0,0"><path id="SvgjsPath1145" d="M0,2 L14,6 L0,11 L0,2" fill="#323232" stroke="#323232" stroke-width="2"></path></marker><marker id="SvgjsMarker1154" markerWidth="16" markerHeight="12" refX="16" refY="6" viewBox="0 0 16 12" orient="auto" markerUnits="userSpaceOnUse" stroke-dasharray="0,0"><path id="SvgjsPath1155" d="M0,2 L14,6 L0,11 L0,2" fill="#323232" stroke="#323232" stroke-width="2"></path></marker></defs><g id="SvgjsG1086" transform="translate(25.012481689453125,31)"><path id="SvgjsPath1087" d="M 0 4Q 0 0 4 0L 136 0Q 140 0 140 4L 140 59Q 140 63 136 63L 4 63Q 0 63 0 59Z" stroke="none" fill-opacity="1" fill="#3399ff"></path><g id="SvgjsG1088"><text id="SvgjsText1089" font-family="微软雅黑" text-anchor="middle" font-size="20px" width="120px" fill="#ffffff" font-weight="400" align="middle" anchor="middle" family="微软雅黑" size="20px" weight="400" font-style="" opacity="1" y="16" transform="rotate(0)"><tspan id="SvgjsTspan1090" dy="25" x="70"><tspan id="SvgjsTspan1091" style="text-decoration:;">管理员登录</tspan></tspan></text></g></g><g id="SvgjsG1092"><path id="SvgjsPath1093" d="M95.01248168945312 94L95.01248168945312 139L95.01248168945312 139L95.01248168945312 184" stroke="#323232" stroke-width="2" fill="none" marker-end="url(#SvgjsMarker1094)"></path></g><g id="SvgjsG1096" transform="translate(45.012481689453125,184)"><path id="SvgjsPath1097" d="M 0 4Q 0 0 4 0L 96 0Q 100 0 100 4L 100 66Q 100 70 96 70L 4 70Q 0 70 0 66Z" stroke="none" fill-opacity="1" fill="#3399ff"></path><g id="SvgjsG1098"><text id="SvgjsText1099" font-family="微软雅黑" text-anchor="middle" font-size="20px" width="80px" fill="#ffffff" font-weight="400" align="middle" anchor="middle" family="微软雅黑" size="20px" weight="400" font-style="" opacity="1" y="19.5" transform="rotate(0)"><tspan id="SvgjsTspan1100" dy="25" x="50"><tspan id="SvgjsTspan1101" style="text-decoration:;">校验信息</tspan></tspan></text></g></g><g id="SvgjsG1102"><path id="SvgjsPath1103" d="M95.01248168945312 254L95.01248168945312 298L95.01248168945312 298L95.01248168945312 342" stroke="#323232" stroke-width="2" fill="none" marker-end="url(#SvgjsMarker1104)"></path></g><g id="SvgjsG1106" transform="translate(29.012481689453125,342)"><path id="SvgjsPath1107" d="M 0 4Q 0 0 4 0L 128 0Q 132 0 132 4L 132 68Q 132 72 128 72L 4 72Q 0 72 0 68Z" stroke="none" fill-opacity="1" fill="#3399ff"></path><g id="SvgjsG1108"><text id="SvgjsText1109" font-family="微软雅黑" text-anchor="middle" font-size="20px" width="112px" fill="#ffffff" font-weight="400" align="middle" anchor="middle" family="微软雅黑" size="20px" weight="400" font-style="" opacity="1" y="20.5" transform="rotate(0)"><tspan id="SvgjsTspan1110" dy="25" x="66"><tspan id="SvgjsTspan1111" style="text-decoration:;">维护组件库</tspan></tspan></text></g></g><g id="SvgjsG1112" transform="translate(317.0124816894531,25)"><path id="SvgjsPath1113" d="M 0 4Q 0 0 4 0L 136 0Q 140 0 140 4L 140 59Q 140 63 136 63L 4 63Q 0 63 0 59Z" stroke="none" fill-opacity="1" fill="#3399ff"></path><g id="SvgjsG1114"><text id="SvgjsText1115" font-family="微软雅黑" text-anchor="middle" font-size="20px" width="120px" fill="#ffffff" font-weight="400" align="middle" anchor="middle" family="微软雅黑" size="20px" weight="400" font-style="" opacity="1" y="16" transform="rotate(0)"><tspan id="SvgjsTspan1116" dy="25" x="70"><tspan id="SvgjsTspan1117" style="text-decoration:;">用户登录</tspan></tspan></text></g></g><g id="SvgjsG1118"><path id="SvgjsPath1119" d="M387.0124816894531 88L387.0124816894531 132.4000015258789L387.0124816894531 132.4000015258789L387.0124816894531 176.8000030517578" stroke="#323232" stroke-width="2" fill="none" marker-end="url(#SvgjsMarker1120)"></path></g><g id="SvgjsG1122" transform="translate(252.01248168945312,176.8000030517578)"><path id="SvgjsPath1123" d="M 0 4Q 0 0 4 0L 266 0Q 270 0 270 4L 270 73.19999694824219Q 270 77.19999694824219 266 77.19999694824219L 4 77.19999694824219Q 0 77.19999694824219 0 73.19999694824219Z" stroke="none" fill-opacity="1" fill="#3399ff"></path><g id="SvgjsG1124"><text id="SvgjsText1125" font-family="微软雅黑" text-anchor="middle" font-size="20px" width="250px" fill="#ffffff" font-weight="400" align="middle" anchor="middle" family="微软雅黑" size="20px" weight="400" font-style="" opacity="1" y="23.099998474121094" transform="rotate(0)"><tspan id="SvgjsTspan1126" dy="25" x="135"><tspan id="SvgjsTspan1127" style="text-decoration:;">编辑/新建项目</tspan></tspan></text></g></g><g id="SvgjsG1128"><path id="SvgjsPath1129" d="M387.0124816894531 254L387.0124816894531 298.5L387.0124816894531 298.5L387.0124816894531 343" stroke="#323232" stroke-width="2" fill="none" marker-end="url(#SvgjsMarker1130)"></path></g><g id="SvgjsG1132" transform="translate(337.0124816894531,343)"><path id="SvgjsPath1133" d="M 0 4Q 0 0 4 0L 96 0Q 100 0 100 4L 100 66Q 100 70 96 70L 4 70Q 0 70 0 66Z" stroke="none" fill-opacity="1" fill="#3399ff"></path><g id="SvgjsG1134"><text id="SvgjsText1135" font-family="微软雅黑" text-anchor="middle" font-size="20px" width="80px" fill="#ffffff" font-weight="400" align="middle" anchor="middle" family="微软雅黑" size="20px" weight="400" font-style="" opacity="1" y="19.5" transform="rotate(0)"><tspan id="SvgjsTspan1136" dy="25" x="50"><tspan id="SvgjsTspan1137" style="text-decoration:;">选择组件</tspan></tspan></text></g></g><g id="SvgjsG1138"><path id="SvgjsPath1139" d="M161.01248168945312 378L249.01248168945312 378L249.01248168945312 378L337.0124816894531 378" stroke="#323232" stroke-width="2" fill="none" marker-end="url(#SvgjsMarker1140)"></path></g><g id="SvgjsG1142"><path id="SvgjsPath1143" d="M387.0124816894531 413L387.0124816894531 445.20000076293945L387.0124816894531 445.20000076293945L387.0124816894531 477.4000015258789" stroke="#323232" stroke-width="2" fill="none" marker-end="url(#SvgjsMarker1144)"></path></g><g id="SvgjsG1146" transform="translate(337.0124816894531,477.4000015258789)"><path id="SvgjsPath1147" d="M 0 4Q 0 0 4 0L 96 0Q 100 0 100 4L 100 66Q 100 70 96 70L 4 70Q 0 70 0 66Z" stroke="none" fill-opacity="1" fill="#3399ff"></path><g id="SvgjsG1148"><text id="SvgjsText1149" font-family="微软雅黑" text-anchor="middle" font-size="20px" width="80px" fill="#ffffff" font-weight="400" align="middle" anchor="middle" family="微软雅黑" size="20px" weight="400" font-style="" opacity="1" y="19.5" transform="rotate(0)"><tspan id="SvgjsTspan1150" dy="25" x="50"><tspan id="SvgjsTspan1151" style="text-decoration:;">完善项目</tspan></tspan></text></g></g><g id="SvgjsG1152"><path id="SvgjsPath1153" d="M387.0124816894531 547.4000015258789L387.0124816894531 581.9000015258789L387.0124816894531 581.9000015258789L387.0124816894531 616.4000015258789" stroke="#323232" stroke-width="2" fill="none" marker-end="url(#SvgjsMarker1154)"></path></g><g id="SvgjsG1156" transform="translate(337.0124816894531,616.4000015258789)"><path id="SvgjsPath1157" d="M 0 4Q 0 0 4 0L 96 0Q 100 0 100 4L 100 66Q 100 70 96 70L 4 70Q 0 70 0 66Z" stroke="none" fill-opacity="1" fill="#3399ff"></path><g id="SvgjsG1158"><text id="SvgjsText1159" font-family="微软雅黑" text-anchor="middle" font-size="20px" width="80px" fill="#ffffff" font-weight="400" align="middle" anchor="middle" family="微软雅黑" size="20px" weight="400" font-style="" opacity="1" y="19.5" transform="rotate(0)"><tspan id="SvgjsTspan1160" dy="25" x="50"><tspan id="SvgjsTspan1161" style="text-decoration:;">生成代码</tspan></tspan></text></g></g></svg>