<svg id="SvgjsSvg1438" width="764" height="391" xmlns="http://www.w3.org/2000/svg" version="1.1" xmlns:xlink="http://www.w3.org/1999/xlink" xmlns:svgjs="http://svgjs.com/svgjs"><defs id="SvgjsDefs1439"></defs><rect id="SvgjsRect1440" width="764" height="391" fill="#ffffff"></rect><g id="SvgjsG1441" transform="translate(25,87)"><path id="SvgjsPath1442" d="M 0 4Q 0 0 4 0L 362 0Q 366 0 366 4L 366 275Q 366 279 362 279L 4 279Q 0 279 0 275Z" stroke-dasharray="10,6" stroke="rgba(0,204,0,1)" stroke-width="1" fill="none"></path><g id="SvgjsG1443"><text id="SvgjsText1444" font-family="微软雅黑" text-anchor="middle" font-size="13px" width="356px" fill="#000000" font-weight="400" align="top" anchor="middle" family="微软雅黑" size="13px" weight="400" font-style="" opacity="1" y="0.050000000000000044" transform="rotate(0)"><tspan id="SvgjsTspan1445" dy="16" x="183"><tspan id="SvgjsTspan1446" style="text-decoration:;">fast-cms</tspan></tspan></text></g></g><g id="SvgjsG1447" transform="translate(44,169)"><path id="SvgjsPath1448" d="M 0 4Q 0 0 4 0L 324 0Q 328 0 328 4L 328 181Q 328 185 324 185L 4 185Q 0 185 0 181Z" stroke="none" fill-opacity="1" fill="#66ff66"></path><g id="SvgjsG1449"><text id="SvgjsText1450" font-family="微软雅黑" text-anchor="middle" font-size="16px" width="318px" fill="#323232" font-weight="700" align="top" anchor="middle" family="微软雅黑" size="16px" weight="700" font-style="" opacity="1" y="-0.3999999999999999" transform="rotate(0)"><tspan id="SvgjsTspan1451" dy="20" x="164"><tspan id="SvgjsTspan1452" style="text-decoration:;">项目编辑器</tspan></tspan></text></g></g><g id="SvgjsG1453" transform="translate(409,87)"><path id="SvgjsPath1454" d="M 0 4Q 0 0 4 0L 326 0Q 330 0 330 4L 330 275Q 330 279 326 279L 4 279Q 0 279 0 275Z" stroke-dasharray="10,6" stroke="rgba(0,204,0,1)" stroke-width="1" fill="none"></path><g id="SvgjsG1455"><text id="SvgjsText1456" font-family="微软雅黑" text-anchor="middle" font-size="13px" width="320px" fill="#000000" font-weight="400" align="top" anchor="middle" family="微软雅黑" size="13px" weight="400" font-style="" opacity="1" y="0.050000000000000044" transform="rotate(0)"><tspan id="SvgjsTspan1457" dy="16" x="165"><tspan id="SvgjsTspan1458" style="text-decoration:;">后台管理系统</tspan></tspan></text></g></g><g id="SvgjsG1459" transform="translate(25,25)"><path id="SvgjsPath1460" d="M 0 4Q 0 0 4 0L 710 0Q 714 0 714 4L 714 50Q 714 54 710 54L 4 54Q 0 54 0 50Z" stroke="none" fill-opacity="1" fill="#ffb366"></path><g id="SvgjsG1461"><text id="SvgjsText1462" font-family="微软雅黑" text-anchor="middle" font-size="13px" width="704px" fill="#323232" font-weight="400" align="middle" anchor="middle" family="微软雅黑" size="13px" weight="400" font-style="" opacity="1" y="-5.092857142857143" transform="rotate(0)"><tspan id="SvgjsTspan1463" dy="16" x="357"><tspan id="SvgjsTspan1464" style="text-decoration:;"> </tspan></tspan></text></g></g><g id="SvgjsG1465" transform="translate(422,118)"><path id="SvgjsPath1466" d="M 0 4Q 0 0 4 0L 141 0Q 145 0 145 4L 145 32Q 145 36 141 36L 4 36Q 0 36 0 32Z" stroke="none" fill-opacity="1" fill="#66ff66"></path><g id="SvgjsG1467"><text id="SvgjsText1468" font-family="微软雅黑" text-anchor="middle" font-size="16px" width="135px" fill="#323232" font-weight="700" align="top" anchor="middle" family="微软雅黑" size="16px" weight="700" font-style="" opacity="1" y="-0.3999999999999999" transform="rotate(0)"><tspan id="SvgjsTspan1469" dy="20" x="72.5"><tspan id="SvgjsTspan1470" style="text-decoration:;"> </tspan></tspan></text></g></g><g id="SvgjsG1471" transform="translate(327.45833333333337,25)"><path id="SvgjsPath1472" d="M 0 0L 109.08333333333334 0L 109.08333333333334 54L 0 54Z" stroke="none" fill="none"></path><g id="SvgjsG1473"><text id="SvgjsText1474" font-family="微软雅黑" text-anchor="middle" font-size="19px" width="110px" fill="#ffffff" font-weight="400" align="middle" anchor="middle" family="微软雅黑" size="19px" weight="400" font-style="" opacity="1" y="12.15" transform="rotate(0)"><tspan id="SvgjsTspan1475" dy="23" x="55"><tspan id="SvgjsTspan1476" style="text-decoration:;">用户认证</tspan></tspan></text></g></g><g id="SvgjsG1477" transform="translate(434.5,118)"><path id="SvgjsPath1478" d="M 0 0L 120 0L 120 36L 0 36Z" stroke="none" fill="none"></path><g id="SvgjsG1479"><text id="SvgjsText1480" font-family="微软雅黑" text-anchor="middle" font-size="16px" width="120px" fill="#323232" font-weight="700" align="middle" anchor="middle" family="微软雅黑" size="16px" weight="700" font-style="" opacity="1" y="5.6" transform="rotate(0)"><tspan id="SvgjsTspan1481" dy="20" x="60"><tspan id="SvgjsTspan1482" style="text-decoration:;">用户管理</tspan></tspan></text></g></g><g id="SvgjsG1483" transform="translate(422,318)"><path id="SvgjsPath1484" d="M 0 4Q 0 0 4 0L 141 0Q 145 0 145 4L 145 32Q 145 36 141 36L 4 36Q 0 36 0 32Z" stroke="none" fill-opacity="1" fill="#66ff66"></path><g id="SvgjsG1485"><text id="SvgjsText1486" font-family="微软雅黑" text-anchor="middle" font-size="16px" width="135px" fill="#323232" font-weight="700" align="top" anchor="middle" family="微软雅黑" size="16px" weight="700" font-style="" opacity="1" y="-0.3999999999999999" transform="rotate(0)"><tspan id="SvgjsTspan1487" dy="20" x="72.5"><tspan id="SvgjsTspan1488" style="text-decoration:;"> </tspan></tspan></text></g></g><g id="SvgjsG1489" transform="translate(434.5,318)"><path id="SvgjsPath1490" d="M 0 0L 120 0L 120 36L 0 36Z" stroke="none" fill="none"></path><g id="SvgjsG1491"><text id="SvgjsText1492" font-family="微软雅黑" text-anchor="middle" font-size="16px" width="120px" fill="#323232" font-weight="700" align="middle" anchor="middle" family="微软雅黑" size="16px" weight="700" font-style="" opacity="1" y="5.6" transform="rotate(0)"><tspan id="SvgjsTspan1493" dy="20" x="60"><tspan id="SvgjsTspan1494" style="text-decoration:;">项目管理</tspan></tspan></text></g></g><g id="SvgjsG1495" transform="translate(422,169)"><path id="SvgjsPath1496" d="M 0 4Q 0 0 4 0L 141 0Q 145 0 145 4L 145 32Q 145 36 141 36L 4 36Q 0 36 0 32Z" stroke="none" fill-opacity="1" fill="#66ff66"></path><g id="SvgjsG1497"><text id="SvgjsText1498" font-family="微软雅黑" text-anchor="middle" font-size="16px" width="135px" fill="#323232" font-weight="700" align="top" anchor="middle" family="微软雅黑" size="16px" weight="700" font-style="" opacity="1" y="-0.3999999999999999" transform="rotate(0)"><tspan id="SvgjsTspan1499" dy="20" x="72.5"><tspan id="SvgjsTspan1500" style="text-decoration:;"> </tspan></tspan></text></g></g><g id="SvgjsG1501" transform="translate(434.5,169)"><path id="SvgjsPath1502" d="M 0 0L 120 0L 120 36L 0 36Z" stroke="none" fill="none"></path><g id="SvgjsG1503"><text id="SvgjsText1504" font-family="微软雅黑" text-anchor="middle" font-size="16px" width="120px" fill="#323232" font-weight="700" align="middle" anchor="middle" family="微软雅黑" size="16px" weight="700" font-style="" opacity="1" y="5.6" transform="rotate(0)"><tspan id="SvgjsTspan1505" dy="20" x="60"><tspan id="SvgjsTspan1506" style="text-decoration:;">UI框架管理</tspan></tspan></text></g></g><g id="SvgjsG1507" transform="translate(583,118)"><path id="SvgjsPath1508" d="M 0 4Q 0 0 4 0L 141 0Q 145 0 145 4L 145 187.39999389648438Q 145 191.39999389648438 141 191.39999389648438L 4 191.39999389648438Q 0 191.39999389648438 0 187.39999389648438Z" stroke="none" fill-opacity="1" fill="#66ff66"></path><g id="SvgjsG1509"><text id="SvgjsText1510" font-family="微软雅黑" text-anchor="middle" font-size="16px" width="135px" fill="#323232" font-weight="700" align="top" anchor="middle" family="微软雅黑" size="16px" weight="700" font-style="" opacity="1" y="-0.3999999999999999" transform="rotate(0)"><tspan id="SvgjsTspan1511" dy="20" x="72.5"><tspan id="SvgjsTspan1512" style="text-decoration:;">组件管理</tspan></tspan></text></g></g><g id="SvgjsG1513" transform="translate(422,219)"><path id="SvgjsPath1514" d="M 0 4Q 0 0 4 0L 141 0Q 145 0 145 4L 145 32Q 145 36 141 36L 4 36Q 0 36 0 32Z" stroke="none" fill-opacity="1" fill="#66ff66"></path><g id="SvgjsG1515"><text id="SvgjsText1516" font-family="微软雅黑" text-anchor="middle" font-size="16px" width="135px" fill="#323232" font-weight="700" align="top" anchor="middle" family="微软雅黑" size="16px" weight="700" font-style="" opacity="1" y="-0.3999999999999999" transform="rotate(0)"><tspan id="SvgjsTspan1517" dy="20" x="72.5"><tspan id="SvgjsTspan1518" style="text-decoration:;"> </tspan></tspan></text></g></g><g id="SvgjsG1519" transform="translate(434.5,219)"><path id="SvgjsPath1520" d="M 0 0L 120 0L 120 36L 0 36Z" stroke="none" fill="none"></path><g id="SvgjsG1521"><text id="SvgjsText1522" font-family="微软雅黑" text-anchor="middle" font-size="16px" width="120px" fill="#323232" font-weight="700" align="middle" anchor="middle" family="微软雅黑" size="16px" weight="700" font-style="" opacity="1" y="5.6" transform="rotate(0)"><tspan id="SvgjsTspan1523" dy="20" x="60"><tspan id="SvgjsTspan1524" style="text-decoration:;">平台字典管理</tspan></tspan></text></g></g><g id="SvgjsG1525" transform="translate(422,267)"><path id="SvgjsPath1526" d="M 0 4Q 0 0 4 0L 141 0Q 145 0 145 4L 145 32Q 145 36 141 36L 4 36Q 0 36 0 32Z" stroke="none" fill-opacity="1" fill="#66ff66"></path><g id="SvgjsG1527"><text id="SvgjsText1528" font-family="微软雅黑" text-anchor="middle" font-size="16px" width="135px" fill="#323232" font-weight="700" align="top" anchor="middle" family="微软雅黑" size="16px" weight="700" font-style="" opacity="1" y="-0.3999999999999999" transform="rotate(0)"><tspan id="SvgjsTspan1529" dy="20" x="72.5"><tspan id="SvgjsTspan1530" style="text-decoration:;"> </tspan></tspan></text></g></g><g id="SvgjsG1531" transform="translate(434.5,267)"><path id="SvgjsPath1532" d="M 0 0L 120 0L 120 36L 0 36Z" stroke="none" fill="none"></path><g id="SvgjsG1533"><text id="SvgjsText1534" font-family="微软雅黑" text-anchor="middle" font-size="16px" width="120px" fill="#323232" font-weight="700" align="middle" anchor="middle" family="微软雅黑" size="16px" weight="700" font-style="" opacity="1" y="5.6" transform="rotate(0)"><tspan id="SvgjsTspan1535" dy="20" x="60"><tspan id="SvgjsTspan1536" style="text-decoration:;">技术框架管理</tspan></tspan></text></g></g><g id="SvgjsG1537" transform="translate(44,118)"><path id="SvgjsPath1538" d="M 0 4Q 0 0 4 0L 141 0Q 145 0 145 4L 145 32Q 145 36 141 36L 4 36Q 0 36 0 32Z" stroke="none" fill-opacity="1" fill="#66ff66"></path><g id="SvgjsG1539"><text id="SvgjsText1540" font-family="微软雅黑" text-anchor="middle" font-size="16px" width="135px" fill="#323232" font-weight="700" align="top" anchor="middle" family="微软雅黑" size="16px" weight="700" font-style="" opacity="1" y="-0.3999999999999999" transform="rotate(0)"><tspan id="SvgjsTspan1541" dy="20" x="72.5"><tspan id="SvgjsTspan1542" style="text-decoration:;"> </tspan></tspan></text></g></g><g id="SvgjsG1543" transform="translate(56.5,118)"><path id="SvgjsPath1544" d="M 0 0L 120 0L 120 36L 0 36Z" stroke="none" fill="none"></path><g id="SvgjsG1545"><text id="SvgjsText1546" font-family="微软雅黑" text-anchor="middle" font-size="16px" width="120px" fill="#323232" font-weight="700" align="middle" anchor="middle" family="微软雅黑" size="16px" weight="700" font-style="" opacity="1" y="5.6" transform="rotate(0)"><tspan id="SvgjsTspan1547" dy="20" x="60"><tspan id="SvgjsTspan1548" style="text-decoration:;">个人信息管理</tspan></tspan></text></g></g><g id="SvgjsG1549" transform="translate(224,118)"><path id="SvgjsPath1550" d="M 0 4Q 0 0 4 0L 141 0Q 145 0 145 4L 145 32Q 145 36 141 36L 4 36Q 0 36 0 32Z" stroke="none" fill-opacity="1" fill="#66ff66"></path><g id="SvgjsG1551"><text id="SvgjsText1552" font-family="微软雅黑" text-anchor="middle" font-size="16px" width="135px" fill="#323232" font-weight="700" align="top" anchor="middle" family="微软雅黑" size="16px" weight="700" font-style="" opacity="1" y="-0.3999999999999999" transform="rotate(0)"><tspan id="SvgjsTspan1553" dy="20" x="72.5"><tspan id="SvgjsTspan1554" style="text-decoration:;"> </tspan></tspan></text></g></g><g id="SvgjsG1555" transform="translate(236.5,118)"><path id="SvgjsPath1556" d="M 0 0L 120 0L 120 36L 0 36Z" stroke="none" fill="none"></path><g id="SvgjsG1557"><text id="SvgjsText1558" font-family="微软雅黑" text-anchor="middle" font-size="16px" width="120px" fill="#323232" font-weight="700" align="middle" anchor="middle" family="微软雅黑" size="16px" weight="700" font-style="" opacity="1" y="5.6" transform="rotate(0)"><tspan id="SvgjsTspan1559" dy="20" x="60"><tspan id="SvgjsTspan1560" style="text-decoration:;">个人项目管理</tspan></tspan></text></g></g><g id="SvgjsG1561" transform="translate(53.600006103515625,198)"><path id="SvgjsPath1562" d="M 0 4Q 0 0 4 0L 141 0Q 145 0 145 4L 145 32Q 145 36 141 36L 4 36Q 0 36 0 32Z" stroke="none" fill-opacity="1" fill="#66b2ff"></path><g id="SvgjsG1563"><text id="SvgjsText1564" font-family="微软雅黑" text-anchor="middle" font-size="16px" width="135px" fill="#323232" font-weight="700" align="top" anchor="middle" family="微软雅黑" size="16px" weight="700" font-style="" opacity="1" y="-0.3999999999999999" transform="rotate(0)"><tspan id="SvgjsTspan1565" dy="20" x="72.5"><tspan id="SvgjsTspan1566" style="text-decoration:;"> </tspan></tspan></text></g></g><g id="SvgjsG1567" transform="translate(66.60000610351562,198)"><path id="SvgjsPath1568" d="M 0 0L 120 0L 120 36L 0 36Z" stroke="none" fill="none"></path><g id="SvgjsG1569"><text id="SvgjsText1570" font-family="微软雅黑" text-anchor="middle" font-size="16px" width="120px" fill="#323232" font-weight="700" align="middle" anchor="middle" family="微软雅黑" size="16px" weight="700" font-style="" opacity="1" y="5.6" transform="rotate(0)"><tspan id="SvgjsTspan1571" dy="20" x="60"><tspan id="SvgjsTspan1572" style="text-decoration:;">组件管理</tspan></tspan></text></g></g><g id="SvgjsG1573" transform="translate(215.60000610351562,201)"><path id="SvgjsPath1574" d="M 0 4Q 0 0 4 0L 141 0Q 145 0 145 4L 145 32Q 145 36 141 36L 4 36Q 0 36 0 32Z" stroke="none" fill-opacity="1" fill="#66b2ff"></path><g id="SvgjsG1575"><text id="SvgjsText1576" font-family="微软雅黑" text-anchor="middle" font-size="16px" width="135px" fill="#323232" font-weight="700" align="top" anchor="middle" family="微软雅黑" size="16px" weight="700" font-style="" opacity="1" y="-0.3999999999999999" transform="rotate(0)"><tspan id="SvgjsTspan1577" dy="20" x="72.5"><tspan id="SvgjsTspan1578" style="text-decoration:;"> </tspan></tspan></text></g></g><g id="SvgjsG1579" transform="translate(227.60000610351562,201)"><path id="SvgjsPath1580" d="M 0 0L 120 0L 120 36L 0 36Z" stroke="none" fill="none"></path><g id="SvgjsG1581"><text id="SvgjsText1582" font-family="微软雅黑" text-anchor="middle" font-size="16px" width="120px" fill="#323232" font-weight="700" align="middle" anchor="middle" family="微软雅黑" size="16px" weight="700" font-style="" opacity="1" y="5.6" transform="rotate(0)"><tspan id="SvgjsTspan1583" dy="20" x="60"><tspan id="SvgjsTspan1584" style="text-decoration:;">组件属性管理</tspan></tspan></text></g></g><g id="SvgjsG1585" transform="translate(53.600006103515625,250)"><path id="SvgjsPath1586" d="M 0 4Q 0 0 4 0L 141 0Q 145 0 145 4L 145 32Q 145 36 141 36L 4 36Q 0 36 0 32Z" stroke="none" fill-opacity="1" fill="#66b2ff"></path><g id="SvgjsG1587"><text id="SvgjsText1588" font-family="微软雅黑" text-anchor="middle" font-size="16px" width="135px" fill="#323232" font-weight="700" align="top" anchor="middle" family="微软雅黑" size="16px" weight="700" font-style="" opacity="1" y="-0.3999999999999999" transform="rotate(0)"><tspan id="SvgjsTspan1589" dy="20" x="72.5"><tspan id="SvgjsTspan1590" style="text-decoration:;"> </tspan></tspan></text></g></g><g id="SvgjsG1591" transform="translate(66.60000610351562,250)"><path id="SvgjsPath1592" d="M 0 0L 120 0L 120 36L 0 36Z" stroke="none" fill="none"></path><g id="SvgjsG1593"><text id="SvgjsText1594" font-family="微软雅黑" text-anchor="middle" font-size="16px" width="120px" fill="#323232" font-weight="700" align="middle" anchor="middle" family="微软雅黑" size="16px" weight="700" font-style="" opacity="1" y="5.6" transform="rotate(0)"><tspan id="SvgjsTspan1595" dy="20" x="60"><tspan id="SvgjsTspan1596" style="text-decoration:;">组件事件管理</tspan></tspan></text></g></g><g id="SvgjsG1597" transform="translate(53.600006103515625,303)"><path id="SvgjsPath1598" d="M 0 4Q 0 0 4 0L 141 0Q 145 0 145 4L 145 32Q 145 36 141 36L 4 36Q 0 36 0 32Z" stroke="none" fill-opacity="1" fill="#66b2ff"></path><g id="SvgjsG1599"><text id="SvgjsText1600" font-family="微软雅黑" text-anchor="middle" font-size="16px" width="135px" fill="#323232" font-weight="700" align="top" anchor="middle" family="微软雅黑" size="16px" weight="700" font-style="" opacity="1" y="-0.3999999999999999" transform="rotate(0)"><tspan id="SvgjsTspan1601" dy="20" x="72.5"><tspan id="SvgjsTspan1602" style="text-decoration:;"> </tspan></tspan></text></g></g><g id="SvgjsG1603" transform="translate(66.60000610351562,303)"><path id="SvgjsPath1604" d="M 0 0L 120 0L 120 36L 0 36Z" stroke="none" fill="none"></path><g id="SvgjsG1605"><text id="SvgjsText1606" font-family="微软雅黑" text-anchor="middle" font-size="16px" width="120px" fill="#323232" font-weight="700" align="middle" anchor="middle" family="微软雅黑" size="16px" weight="700" font-style="" opacity="1" y="5.6" transform="rotate(0)"><tspan id="SvgjsTspan1607" dy="20" x="60"><tspan id="SvgjsTspan1608" style="text-decoration:;">可视化页面</tspan></tspan></text></g></g><g id="SvgjsG1609" transform="translate(215.10000610351562,250)"><path id="SvgjsPath1610" d="M 0 4Q 0 0 4 0L 141 0Q 145 0 145 4L 145 32Q 145 36 141 36L 4 36Q 0 36 0 32Z" stroke="none" fill-opacity="1" fill="#66b2ff"></path><g id="SvgjsG1611"><text id="SvgjsText1612" font-family="微软雅黑" text-anchor="middle" font-size="16px" width="135px" fill="#323232" font-weight="700" align="top" anchor="middle" family="微软雅黑" size="16px" weight="700" font-style="" opacity="1" y="-0.3999999999999999" transform="rotate(0)"><tspan id="SvgjsTspan1613" dy="20" x="72.5"><tspan id="SvgjsTspan1614" style="text-decoration:;"> </tspan></tspan></text></g></g><g id="SvgjsG1615" transform="translate(227.10000610351562,250)"><path id="SvgjsPath1616" d="M 0 0L 120 0L 120 36L 0 36Z" stroke="none" fill="none"></path><g id="SvgjsG1617"><text id="SvgjsText1618" font-family="微软雅黑" text-anchor="middle" font-size="16px" width="120px" fill="#323232" font-weight="700" align="middle" anchor="middle" family="微软雅黑" size="16px" weight="700" font-style="" opacity="1" y="5.6" transform="rotate(0)"><tspan id="SvgjsTspan1619" dy="20" x="60"><tspan id="SvgjsTspan1620" style="text-decoration:;">组件树管理</tspan></tspan></text></g></g><g id="SvgjsG1621" transform="translate(215.60000610351562,303)"><path id="SvgjsPath1622" d="M 0 4Q 0 0 4 0L 141 0Q 145 0 145 4L 145 32Q 145 36 141 36L 4 36Q 0 36 0 32Z" stroke="none" fill-opacity="1" fill="#66b2ff"></path><g id="SvgjsG1623"><text id="SvgjsText1624" font-family="微软雅黑" text-anchor="middle" font-size="16px" width="135px" fill="#323232" font-weight="700" align="top" anchor="middle" family="微软雅黑" size="16px" weight="700" font-style="" opacity="1" y="-0.3999999999999999" transform="rotate(0)"><tspan id="SvgjsTspan1625" dy="20" x="72.5"><tspan id="SvgjsTspan1626" style="text-decoration:;"> </tspan></tspan></text></g></g><g id="SvgjsG1627" transform="translate(227.60000610351562,303)"><path id="SvgjsPath1628" d="M 0 0L 120 0L 120 36L 0 36Z" stroke="none" fill="none"></path><g id="SvgjsG1629"><text id="SvgjsText1630" font-family="微软雅黑" text-anchor="middle" font-size="16px" width="120px" fill="#323232" font-weight="700" align="middle" anchor="middle" family="微软雅黑" size="16px" weight="700" font-style="" opacity="1" y="5.6" transform="rotate(0)"><tspan id="SvgjsTspan1631" dy="20" x="60"><tspan id="SvgjsTspan1632" style="text-decoration:;">页面管理</tspan></tspan></text></g></g><g id="SvgjsG1633" transform="translate(594,154)"><path id="SvgjsPath1634" d="M 0 4Q 0 0 4 0L 119 0Q 123 0 123 4L 123 32Q 123 36 119 36L 4 36Q 0 36 0 32Z" stroke="none" fill-opacity="1" fill="#66b2ff"></path><g id="SvgjsG1635"><text id="SvgjsText1636" font-family="微软雅黑" text-anchor="middle" font-size="16px" width="113px" fill="#323232" font-weight="700" align="top" anchor="middle" family="微软雅黑" size="16px" weight="700" font-style="" opacity="1" y="-0.3999999999999999" transform="rotate(0)"><tspan id="SvgjsTspan1637" dy="20" x="61.5"><tspan id="SvgjsTspan1638" style="text-decoration:;"> </tspan></tspan></text></g></g><g id="SvgjsG1639" transform="translate(604.6034482758621,154)"><path id="SvgjsPath1640" d="M 0 0L 101.79310344827586 0L 101.79310344827586 36L 0 36Z" stroke="none" fill="none"></path><g id="SvgjsG1641"><text id="SvgjsText1642" font-family="微软雅黑" text-anchor="middle" font-size="16px" width="102px" fill="#323232" font-weight="700" align="middle" anchor="middle" family="微软雅黑" size="16px" weight="700" font-style="" opacity="1" y="5.6" transform="rotate(0)"><tspan id="SvgjsTspan1643" dy="20" x="51"><tspan id="SvgjsTspan1644" style="text-decoration:;">属性管理</tspan></tspan></text></g></g><g id="SvgjsG1645" transform="translate(594,205)"><path id="SvgjsPath1646" d="M 0 4Q 0 0 4 0L 119 0Q 123 0 123 4L 123 32Q 123 36 119 36L 4 36Q 0 36 0 32Z" stroke="none" fill-opacity="1" fill="#66b2ff"></path><g id="SvgjsG1647"><text id="SvgjsText1648" font-family="微软雅黑" text-anchor="middle" font-size="16px" width="113px" fill="#323232" font-weight="700" align="top" anchor="middle" family="微软雅黑" size="16px" weight="700" font-style="" opacity="1" y="-0.3999999999999999" transform="rotate(0)"><tspan id="SvgjsTspan1649" dy="20" x="61.5"><tspan id="SvgjsTspan1650" style="text-decoration:;"> </tspan></tspan></text></g></g><g id="SvgjsG1651" transform="translate(604.6034482758621,205)"><path id="SvgjsPath1652" d="M 0 0L 101.79310344827586 0L 101.79310344827586 36L 0 36Z" stroke="none" fill="none"></path><g id="SvgjsG1653"><text id="SvgjsText1654" font-family="微软雅黑" text-anchor="middle" font-size="16px" width="102px" fill="#323232" font-weight="700" align="middle" anchor="middle" family="微软雅黑" size="16px" weight="700" font-style="" opacity="1" y="5.6" transform="rotate(0)"><tspan id="SvgjsTspan1655" dy="20" x="51"><tspan id="SvgjsTspan1656" style="text-decoration:;">事件管理</tspan></tspan></text></g></g><g id="SvgjsG1657" transform="translate(594,259)"><path id="SvgjsPath1658" d="M 0 4Q 0 0 4 0L 119 0Q 123 0 123 4L 123 32Q 123 36 119 36L 4 36Q 0 36 0 32Z" stroke="none" fill-opacity="1" fill="#66b2ff"></path><g id="SvgjsG1659"><text id="SvgjsText1660" font-family="微软雅黑" text-anchor="middle" font-size="16px" width="113px" fill="#323232" font-weight="700" align="top" anchor="middle" family="微软雅黑" size="16px" weight="700" font-style="" opacity="1" y="-0.3999999999999999" transform="rotate(0)"><tspan id="SvgjsTspan1661" dy="20" x="61.5"><tspan id="SvgjsTspan1662" style="text-decoration:;"> </tspan></tspan></text></g></g><g id="SvgjsG1663" transform="translate(604.6034482758621,259)"><path id="SvgjsPath1664" d="M 0 0L 101.79310344827586 0L 101.79310344827586 36L 0 36Z" stroke="none" fill="none"></path><g id="SvgjsG1665"><text id="SvgjsText1666" font-family="微软雅黑" text-anchor="middle" font-size="16px" width="102px" fill="#323232" font-weight="700" align="middle" anchor="middle" family="微软雅黑" size="16px" weight="700" font-style="" opacity="1" y="5.6" transform="rotate(0)"><tspan id="SvgjsTspan1667" dy="20" x="51"><tspan id="SvgjsTspan1668" style="text-decoration:;">基础信息管理</tspan></tspan></text></g></g></svg>
